<svg width="1955" height="490" xmlns="http://www.w3.org/2000/svg"><g fill="#FFF" fill-rule="nonzero"><path d="M1191.147 139.532c-31.438 0-56.132 6.744-80.84 20.207 0-71.865 0-136.986 2.257-159.437L962.077 27.24v13.476l15.719 2.244c20.194 4.487 26.964 15.706 31.413 42.67 4.526 53.902 2.256 341.375 0 388.546 40.426 8.988 83.11 15.732 125.793 15.732 119.036 0 190.9-74.121 190.9-190.914 0-92.071-58.389-159.462-134.755-159.462zm-51.658 325.656c-8.988 0-20.233 0-26.95-2.23-2.258-31.44-4.488-163.964-2.258-280.743 13.476-4.5 22.451-6.744 33.696-6.744 49.44 0 76.391 58.39 76.391 130.242-.013 89.867-33.708 159.475-80.879 159.475zM396.08 9.278H.79v20.206l22.463 2.244c29.182 4.487 40.427 22.45 44.901 65.12 6.757 80.854 4.5 226.854 0 296.45-4.487 42.682-15.706 62.902-44.9 65.12L.788 462.931v17.963h253.79v-17.963l-26.95-4.513c-29.195-2.23-40.427-22.438-44.914-65.12-2.257-29.209-4.5-76.38-4.5-134.756l53.901 2.244c33.695 0 49.402 26.95 56.146 65.12h20.22v-159.41h-20.22c-6.757 38.183-22.45 65.12-56.146 65.12l-53.889 2.258c0-76.366 2.244-148.231 4.5-190.901h78.597c60.66 0 92.098 38.17 114.548 105.56l22.464-6.744-2.257-132.512z"/><path d="M524.103 135.045c112.305 0 168.45 76.365 168.45 177.425 0 96.572-62.89 177.451-175.194 177.451-112.292 0-168.438-76.378-168.438-177.451 0-96.572 62.877-177.425 175.182-177.425zm-6.744 22.463c-49.415 0-62.89 67.378-62.89 154.962 0 85.34 22.463 154.962 67.39 154.962 51.62 0 65.121-67.378 65.121-154.962 0-85.34-22.438-154.962-69.621-154.962zm837.725 157.219c0-92.085 58.39-179.682 172.938-179.682 94.303 0 139.243 69.634 139.243 161.706h-208.877c-2.257 83.097 38.17 143.743 119.036 143.743 35.939 0 53.902-8.962 76.379-24.694l8.962 11.218c-22.464 31.439-71.866 62.903-134.743 62.903-101.072-.013-172.938-71.878-172.938-175.194zm103.304-42.67l105.56-2.257c0-44.914-6.744-112.292-44.914-112.292s-58.415 62.877-60.646 114.548zm476.183-119.036c-26.951-11.245-62.878-17.976-103.304-17.976-83.084 0-134.768 49.401-134.768 107.804 0 58.402 38.144 83.096 92.11 101.072 56.133 20.194 71.866 35.927 71.866 62.878 0 26.95-20.22 51.645-56.16 51.645-42.656 0-74.121-24.694-98.815-92.085l-15.733 4.514 2.257 98.816c26.951 11.218 76.353 20.22 119.036 20.22 87.597 0 143.756-44.94 143.756-114.549 0-47.17-24.72-74.109-83.11-96.585-62.903-24.695-85.34-40.414-85.34-69.622 0-29.194 20.245-49.414 47.197-49.414 40.4 0 67.351 24.707 87.597 85.353l15.706-4.487-2.295-87.584zm-950.057-8.988c-38.17-22.438-105.56-11.232-141.486 69.634l2.23-78.61-150.46 29.195v13.476l15.718 2.244c20.233 2.256 29.195 13.475 31.452 42.683 4.487 53.902 2.244 148.243 0 195.401-2.257 26.925-11.219 40.4-31.452 42.658l-15.719 2.256v17.963h208.864V462.97l-26.95-2.256c-22.451-2.257-29.196-15.733-31.452-42.658-4.488-42.683-4.488-128.024-2.231-181.926 11.219-15.732 60.633-29.194 105.547 0l35.94-92.097z"/></g></svg>