<svg width="659" height="265" xmlns="http://www.w3.org/2000/svg"><path d="M50.96 55.884c-3.031-2.166-6.352-3.178-11.982-3.467-2.6-.144-4.042-.144-6.208-.144-.577 0-.865.29-.865 1.01v34.223c0 9.53.433 11.986 5.052 13.862 3.897 1.59 7.218 1.733 10.538 1.733 6.497 0 17.468-3.466 17.468-18.484 0-8.952-3.03-21.08-14.003-28.733zM31.905 44.332c0 1.156.433 1.444 1.01 1.588 1.3.29 3.465.433 6.786.433 4.764 0 7.94-.576 10.393-2.742 3.753-3.033 5.92-8.23 5.92-15.306 0-9.676-5.631-22.383-18.047-22.383-2.02 0-3.32 0-4.763.29-1.012.289-1.3.866-1.3 2.454v35.666zM14.58 41.877c0-21.949 0-25.992-.29-30.613-.289-4.908-1.443-7.22-6.207-8.23-1.154-.289-3.61-.434-5.63-.434C.866 2.6 0 2.311 0 1.3 0 .29 1.01.003 3.176 0c7.651 0 16.746.434 19.634.434C29.883.434 35.514 0 40.422.002c26.13 0 30.75 14.005 30.75 21.66 0 11.84-6.786 18.914-14.726 25.269C68.285 50.972 82.72 61.226 82.72 78.12c0 15.451-11.982 31.478-38.545 31.478-1.732 0-5.919-.289-10.106-.434-4.33-.288-8.661-.433-10.827-.433-1.589 0-4.765 0-8.23.145-3.32 0-7.072.288-9.96.288-1.877 0-2.888-.433-2.888-1.444 0-.721.578-1.155 2.31-1.155 2.166 0 3.898-.288 5.198-.577 2.887-.578 3.61-3.754 4.186-7.942.722-6.064.722-17.473.722-30.757V41.877zm87.623 9.964c0-18.628.145-22.094-.144-25.993-.29-4.332-1.444-5.487-5.487-6.642-1.01-.29-3.176-.434-4.907-.434-1.445 0-2.165-.434-2.165-1.3 0-.866.865-1.155 2.742-1.155 6.785 0 15.303.29 19.055.29 3.177 0 11.694-.29 16.314-.29 1.877 0 2.742.29 2.742 1.156 0 .865-.721 1.3-2.02 1.3-1.444 0-2.165.144-3.752.433-3.321.577-4.332 2.31-4.622 6.642-.288 3.898-.288 7.365-.288 25.993v17.183c0 17.905 3.464 24.837 9.672 29.746 5.63 4.477 11.694 4.909 16.026 4.909 5.484 0 11.981-1.588 17.033-6.498 7.074-6.642 7.363-17.328 7.363-29.89V51.84c0-18.628-.144-22.094-.289-25.993-.29-4.187-1.3-5.487-5.341-6.642-1.01-.29-3.176-.434-4.62-.434s-2.166-.434-2.166-1.3c0-.866.867-1.155 2.6-1.155 6.496 0 15.013.29 15.157.29 1.445 0 9.963-.29 14.87-.29 1.732 0 2.6.29 2.6 1.156 0 .865-.723 1.3-2.166 1.3-1.444 0-2.166.144-3.754.433-3.465.577-4.33 2.31-4.62 6.642-.144 3.898-.289 7.365-.289 25.993v13.14c0 13.717-1.443 28.158-12.126 36.966-8.951 7.508-18.623 8.807-26.852 8.807-6.642 0-19.778-.288-29.017-8.374-6.497-5.632-11.55-14.728-11.55-32.49V51.84zm102.206 55.736c-2.022-.865-2.454-1.444-2.454-4.187 0-6.643.576-14.295.72-16.316 0-1.878.578-3.178 1.589-3.178 1.155 0 1.3 1.155 1.3 2.022 0 1.588.432 4.187 1.155 6.353 2.743 9.097 12.27 12.13 20.211 12.13 10.971 0 17.612-6.931 17.612-15.594 0-5.344-1.3-10.686-12.56-17.329l-7.363-4.333C209.607 58.338 204.7 50.106 204.7 39.277c0-15.017 14.436-24.692 32.048-24.692 8.228 0 14.726 1.156 18.046 2.021 1.155.288 1.731.722 1.731 1.59 0 1.588-.432 5.053-.432 14.728 0 2.599-.578 3.898-1.588 3.898-.867 0-1.299-.722-1.299-2.166 0-1.155-.578-4.91-3.321-8.087-1.877-2.31-5.918-5.774-14.148-5.774-9.094 0-17.324 4.764-17.324 13.139 0 5.488 2.021 9.819 13.425 16.173l5.198 2.887c16.746 9.242 21.943 18.628 21.943 29.747 0 9.096-3.466 16.462-12.704 22.96-6.064 4.332-14.437 5.052-21.221 5.052-7.361 0-15.158-.72-20.643-3.176zm75.933-55.736c0-18.628 0-22.094-.144-25.993-.289-4.187-1.588-5.632-4.331-6.498-1.444-.434-3.032-.577-4.62-.577-1.298 0-2.021-.289-2.021-1.444 0-.722 1.01-1.011 3.032-1.011 4.764 0 13.425.289 17.034.289 3.177 0 11.405-.29 16.314-.29 1.588 0 2.599.29 2.599 1.012 0 1.155-.721 1.444-2.022 1.444-1.298 0-2.309.144-3.752.434-3.465.577-4.476 2.31-4.765 6.642-.288 3.898-.288 7.365-.288 25.993V73.5c0 11.84 0 21.66.576 26.86.434 3.32 1.3 5.197 5.053 5.774 1.732.29 4.62.434 6.497.434 1.443 0 2.02.722 2.02 1.3 0 .866-1.01 1.3-2.454 1.3-8.373 0-17.035-.434-20.5-.434-2.887 0-11.549.434-16.601.434-1.589 0-2.454-.434-2.454-1.3 0-.577.433-1.3 2.02-1.3 1.877 0 3.32-.144 4.475-.434 2.6-.576 3.321-2.31 3.754-5.919.576-5.054.576-14.874.576-26.714V51.84h.002zm60.632 40.575c.288 9.53 1.876 12.418 4.33 13.285 2.166.722 4.62.866 6.641.866 1.444 0 2.166.578 2.166 1.3 0 1.01-1.156 1.3-2.887 1.3-8.229 0-14.15-.434-16.458-.434-1.155 0-7.218.433-13.715.433-1.732 0-2.887-.143-2.887-1.299 0-.721.866-1.3 2.021-1.3 1.733 0 4.042-.144 5.776-.577 3.32-.866 3.752-4.188 3.897-14.874l1.155-72.777c0-2.454.865-4.187 2.166-4.187 1.587 0 3.32 1.877 5.485 4.043 1.588 1.589 20.645 21.082 39.122 39.132 8.663 8.52 25.553 25.848 27.43 27.58h.577l-1.301-54.583c-.142-7.509-1.298-9.675-4.328-10.83-1.877-.722-4.91-.722-6.642-.722-1.588 0-2.022-.577-2.022-1.3 0-1.01 1.3-1.155 3.176-1.155 6.642 0 13.426.29 16.17.29 1.444 0 6.207-.29 12.415-.29 1.732 0 2.886.144 2.886 1.156 0 .721-.721 1.3-2.165 1.3-1.3 0-2.31 0-3.898.433-3.465 1.01-4.475 3.177-4.62 10.108l-1.444 77.398c0 2.742-1.01 3.898-2.021 3.898-2.165 0-3.897-1.3-5.197-2.6-7.941-7.364-23.821-22.525-37.1-35.377-13.86-13.285-27.286-28.16-29.741-30.325h-.432l1.445 50.108zM448.377 51.84c0-18.628 0-22.094-.146-25.993-.288-4.187-1.442-5.487-5.486-6.642-1.01-.29-3.174-.434-5.051-.434-1.3 0-2.166-.434-2.166-1.3 0-.866 1.01-1.155 2.887-1.155 6.64 0 14.726.29 18.334.29 4.042 0 32.193.142 34.647 0 2.31-.146 4.332-.578 5.341-.722.723-.144 1.444-.578 2.021-.578.722 0 .867.578.867 1.155 0 .867-.722 2.311-1.012 7.943-.143 1.3-.433 6.643-.72 8.086-.145.576-.433 2.021-1.444 2.021-.866 0-1.012-.577-1.012-1.588 0-.866-.143-3.033-.864-4.477-1.013-2.166-2.022-3.898-8.374-4.476-2.165-.29-17.323-.578-19.922-.578-.576 0-.866.434-.866 1.156v30.323c0 .722.145 1.3.866 1.3 2.887 0 19.345 0 22.232-.288 3.032-.29 4.908-.578 6.064-1.877 1.01-.867 1.443-1.589 2.021-1.589.577 0 1.01.577 1.01 1.3 0 .722-.29 2.744-1.01 8.953-.29 2.456-.578 7.365-.578 8.23 0 1.011-.145 2.744-1.298 2.744-.867 0-1.158-.434-1.158-1.01-.143-1.301-.143-2.888-.432-4.478-.721-2.455-2.31-4.332-7.074-4.764-2.31-.29-16.746-.578-19.92-.578-.578 0-.723.578-.723 1.3v9.82c0 4.187-.144 14.583 0 18.193.29 8.375 4.185 10.252 17.18 10.252 3.32 0 8.661-.144 11.982-1.589 3.176-1.444 4.62-4.043 5.485-9.096.29-1.3.578-1.877 1.445-1.877 1.01 0 1.155 1.589 1.155 2.887 0 2.744-1.01 11.12-1.733 13.574-.866 3.176-2.02 3.176-6.785 3.176-9.527 0-17.18-.144-23.386-.432-6.208-.145-10.973-.29-14.725-.29-1.445 0-4.188.145-7.218.145-3.032.145-6.208.288-8.807.288-1.588 0-2.454-.433-2.454-1.299 0-.578.433-1.3 2.022-1.3 1.875 0 3.319-.144 4.474-.434 2.6-.577 3.32-2.887 3.753-6.498.578-5.198.578-14.873.578-26.137V51.841zm70.155 55.736c-2.02-.865-2.454-1.444-2.454-4.187 0-6.643.577-14.295.722-16.316 0-1.878.576-3.178 1.588-3.178 1.155 0 1.299 1.155 1.299 2.022 0 1.588.435 4.187 1.156 6.353 2.741 9.097 12.27 12.13 20.21 12.13 10.972 0 17.612-6.931 17.612-15.594 0-5.344-1.299-10.686-12.56-17.329l-7.361-4.333c-15.014-8.807-19.923-17.039-19.923-27.868 0-15.017 14.437-24.692 32.05-24.692 8.228 0 14.724 1.156 18.044 2.021 1.156.288 1.733.722 1.733 1.59 0 1.588-.433 5.053-.433 14.728 0 2.599-.578 3.898-1.589 3.898-.865 0-1.298-.722-1.298-2.166 0-1.155-.578-4.91-3.321-8.087-1.876-2.31-5.919-5.774-14.148-5.774-9.095 0-17.324 4.764-17.324 13.139 0 5.488 2.02 9.819 13.426 16.173l5.196 2.887C567.904 62.236 573.1 71.622 573.1 82.74c0 9.096-3.465 16.462-12.704 22.96-6.063 4.332-14.435 5.052-21.221 5.052-7.361 0-15.157-.72-20.643-3.176zm71.891 0c-2.02-.865-2.454-1.444-2.454-4.187 0-6.643.576-14.295.721-16.316 0-1.878.578-3.178 1.589-3.178 1.154 0 1.299 1.155 1.299 2.022 0 1.588.434 4.187 1.155 6.353 2.742 9.097 12.27 12.13 20.21 12.13 10.973 0 17.613-6.931 17.613-15.594 0-5.344-1.299-10.686-12.559-17.329l-7.362-4.333c-15.015-8.807-19.923-17.039-19.923-27.868 0-15.017 14.436-24.692 32.048-24.692 8.23 0 14.726 1.156 18.048 2.021 1.153.288 1.73.722 1.73 1.59 0 1.588-.433 5.053-.433 14.728 0 2.599-.578 3.898-1.589 3.898-.866 0-1.299-.722-1.299-2.166 0-1.155-.578-4.91-3.32-8.087-1.877-2.31-5.918-5.774-14.148-5.774-9.095 0-17.324 4.764-17.324 13.139 0 5.488 2.02 9.819 13.426 16.173l5.197 2.887c16.745 9.242 21.943 18.628 21.943 29.747 0 9.096-3.466 16.462-12.705 22.96-6.062 4.332-14.435 5.052-21.222 5.052-7.36 0-15.156-.72-20.641-3.176zM20.497 196.122c0-21.949 0-25.992-.289-30.612-.289-4.91-1.732-7.364-4.908-8.086-1.588-.435-3.465-.579-5.197-.579-1.444 0-2.31-.288-2.31-1.442 0-.867 1.155-1.156 3.465-1.156 5.486 0 14.58.434 18.767.434 3.61 0 12.126-.434 17.612-.434 1.876 0 3.032.289 3.032 1.156 0 1.154-.867 1.442-2.31 1.442-1.445 0-2.6.145-4.332.436-3.897.72-5.053 3.176-5.34 8.23-.29 4.621-.29 8.663-.29 30.612v25.413c0 14.007 0 25.416.577 31.624.434 3.898 1.444 6.497 5.775 7.075 2.021.288 5.197.577 7.362.577 1.589 0 2.31.434 2.31 1.155 0 1.01-1.154 1.444-2.742 1.444-9.528 0-18.623-.433-22.521-.433-3.32 0-12.415.433-18.19.433-1.876 0-2.887-.433-2.887-1.444 0-.721.577-1.155 2.31-1.155 2.165 0 3.898-.29 5.197-.577 2.887-.578 3.753-3.033 4.187-7.22.721-6.063.721-17.473.721-31.479v-25.414h.001zm73.48 50.54c.288 9.53 1.876 12.417 4.33 13.285 2.166.721 4.62.865 6.641.865 1.444 0 2.166.578 2.166 1.301 0 1.01-1.154 1.299-2.887 1.299-8.228 0-14.147-.433-16.458-.433-1.155 0-7.218.433-13.714.433-1.733 0-2.887-.145-2.887-1.299 0-.722.866-1.3 2.02-1.3 1.733 0 4.043-.145 5.775-.577 3.32-.867 3.754-4.187 3.898-14.873l1.155-72.777c0-2.455.866-4.187 2.165-4.187 1.589 0 3.32 1.876 5.486 4.042 1.589 1.589 20.645 21.082 39.123 39.132 8.662 8.52 25.553 25.847 27.43 27.58h.576l-1.299-54.584c-.145-7.508-1.3-9.674-4.331-10.83-1.877-.72-4.908-.72-6.642-.72-1.588 0-2.02-.578-2.02-1.3 0-1.011 1.3-1.156 3.175-1.156 6.642 0 13.426.29 16.17.29 1.444 0 6.207-.29 12.416-.29 1.732 0 2.886.145 2.886 1.155 0 .722-.722 1.301-2.166 1.301-1.3 0-2.31 0-3.898.432-3.464 1.012-4.475 3.178-4.62 10.109l-1.444 77.397c0 2.743-1.01 3.899-2.02 3.899-2.166 0-3.898-1.3-5.198-2.6-7.939-7.364-23.82-22.526-37.1-35.377-13.86-13.285-27.285-28.159-29.74-30.324h-.433l1.444 50.107zm112.597 15.162c-2.02-.867-2.454-1.446-2.454-4.189 0-6.642.577-14.294.721-16.316 0-1.876.577-3.177 1.589-3.177 1.154 0 1.3 1.155 1.3 2.022 0 1.589.432 4.188 1.154 6.353 2.742 9.097 12.27 12.13 20.211 12.13 10.971 0 17.612-6.931 17.612-15.596 0-5.341-1.3-10.684-12.559-17.326l-7.364-4.332c-15.013-8.81-19.921-17.04-19.921-27.87 0-15.017 14.435-24.692 32.048-24.692 8.23 0 14.726 1.154 18.046 2.022 1.155.289 1.732.721 1.732 1.588 0 1.589-.434 5.053-.434 14.729 0 2.6-.576 3.897-1.588 3.897-.866 0-1.3-.721-1.3-2.165 0-1.155-.576-4.908-3.32-8.086-1.877-2.31-5.918-5.776-14.147-5.776-9.095 0-17.324 4.765-17.324 13.14 0 5.488 2.021 9.82 13.425 16.173l5.197 2.888c16.747 9.241 21.943 18.628 21.943 29.746 0 9.097-3.465 16.462-12.703 22.959C242.375 264.278 234 265 227.216 265c-7.359 0-15.155-.722-20.642-3.176zm88.06-55.74c0-18.627 0-22.09-.143-25.99-.29-4.187-1.589-5.632-4.332-6.498-1.443-.434-3.032-.577-4.62-.577-1.3 0-2.02-.29-2.02-1.445 0-.721 1.01-1.011 3.031-1.011 4.765 0 13.425.29 17.035.29 3.177 0 11.404-.29 16.314-.29 1.587 0 2.599.29 2.599 1.011 0 1.155-.722 1.445-2.022 1.445-1.299 0-2.31.144-3.753.432-3.465.579-4.475 2.312-4.764 6.643-.289 3.9-.289 7.364-.289 25.992v21.66c0 11.842 0 21.661.577 26.86.433 3.321 1.3 5.197 5.053 5.774 1.731.29 4.62.434 6.496.434 1.444 0 2.02.722 2.02 1.3 0 .866-1.01 1.3-2.454 1.3-8.373 0-17.034-.434-20.5-.434-2.887 0-11.548.434-16.6.434-1.59 0-2.456-.434-2.456-1.3 0-.578.433-1.3 2.022-1.3 1.877 0 3.32-.144 4.475-.434 2.599-.577 3.32-2.31 3.753-5.919.577-5.053.577-14.872.577-26.713v-21.663h.001zm81.853 13.574c0 12.997.144 22.383.29 24.837.143 3.033.434 7.365 1.443 8.665 1.588 2.31 6.64 4.909 16.601 4.909 11.549 0 20.067-2.02 27.719-8.375 8.228-6.787 10.828-17.761 10.828-30.467 0-15.595-6.209-25.704-11.839-30.612-11.694-10.398-25.552-11.697-35.513-11.697-2.6 0-6.787.289-7.797.866-1.154.433-1.588 1.012-1.588 2.455-.145 4.188-.145 14.296-.145 23.97v15.45h.001zm-17.034-13.573c0-18.628 0-22.091-.146-25.991-.289-4.187-1.444-5.488-5.485-6.643-1.011-.289-3.177-.433-5.053-.433-1.3 0-2.165-.434-2.165-1.3 0-.866 1.01-1.156 2.887-1.156 6.642 0 14.725.29 18.335.29 3.897 0 12.993-.29 20.645-.29 15.879 0 37.244 0 51.103 14.007 6.352 6.354 11.983 16.606 11.983 31.192 0 15.45-6.641 27.146-13.86 34.222-5.774 5.774-19.2 14.439-42.588 14.439-4.62 0-10.104-.433-15.157-.723-5.052-.434-9.673-.721-12.848-.721-1.445 0-4.188.145-7.218.145-3.031.143-6.208.288-8.808.288-1.587 0-2.453-.433-2.453-1.299 0-.578.433-1.3 2.02-1.3 1.877 0 3.32-.145 4.476-.435 2.6-.576 3.32-2.886 3.754-6.497.577-5.197.577-14.872.577-26.136v-21.66zm124.58 0c0-18.628 0-22.091-.144-25.991-.29-4.187-1.443-5.488-5.486-6.643-1.01-.289-3.176-.433-5.053-.433-1.298 0-2.165-.434-2.165-1.3 0-.866 1.011-1.156 2.887-1.156 6.641 0 14.725.29 18.335.29 4.041 0 32.192.143 34.647 0 2.31-.145 4.33-.577 5.341-.722.723-.145 1.444-.578 2.022-.578.721 0 .866.578.866 1.156 0 .866-.721 2.311-1.011 7.943-.144 1.298-.434 6.642-.722 8.085-.144.577-.432 2.022-1.443 2.022-.866 0-1.011-.578-1.011-1.589 0-.866-.145-3.032-.866-4.477-1.011-2.165-2.022-3.897-8.373-4.476-2.166-.29-17.324-.577-19.923-.577-.576 0-.865.432-.865 1.156v30.323c0 .722.144 1.3.865 1.3 2.888 0 19.346 0 22.234-.289 3.03-.29 4.907-.577 6.062-1.876 1.011-.867 1.444-1.59 2.023-1.59.576 0 1.01.578 1.01 1.3 0 .722-.29 2.743-1.01 8.953-.292 2.456-.58 7.365-.58 8.231 0 1.01-.143 2.744-1.297 2.744-.867 0-1.157-.433-1.157-1.012-.144-1.299-.144-2.887-.433-4.475-.72-2.456-2.31-4.333-7.073-4.766-2.31-.29-16.746-.578-19.921-.578-.579 0-.723.578-.723 1.3v9.82c0 4.187-.144 14.583 0 18.193.29 8.375 4.186 10.252 17.18 10.252 3.319 0 8.662-.144 11.982-1.589 3.176-1.442 4.621-4.043 5.485-9.096.29-1.3.577-1.876 1.445-1.876 1.01 0 1.156 1.588 1.156 2.888 0 2.74-1.012 11.117-1.735 13.57-.865 3.177-2.019 3.177-6.783 3.177-9.528 0-17.18-.143-23.386-.434-6.209-.143-10.974-.288-14.726-.288-1.445 0-4.187.145-7.218.145-3.03.143-6.207.288-8.808.288-1.586 0-2.452-.433-2.452-1.299 0-.578.432-1.3 2.02-1.3 1.876 0 3.321-.144 4.475-.434 2.599-.577 3.32-2.886 3.753-6.498.577-5.196.577-14.871.577-26.135l-.001-21.66zm102.497 9.531c0 1.3.288 1.733 1.154 2.166 2.742.867 6.496 1.155 9.674 1.155 5.052 0 6.783-.433 8.948-2.022 3.9-2.743 8.23-8.086 8.23-18.194 0-17.328-11.838-21.803-19.346-21.803-3.174 0-6.206.143-7.506.433-.866.289-1.154.72-1.154 1.732v36.533zm-16.17-9.531c0-18.628 0-22.091-.144-25.991-.29-4.187-1.444-5.488-5.487-6.643-1.01-.289-3.175-.433-5.051-.433-1.3 0-2.165-.434-2.165-1.3 0-.866 1.01-1.156 2.886-1.156 6.64 0 14.725.29 17.324.29 4.33 0 15.88-.29 19.777-.29 8.085 0 17.324.723 24.11 5.199 3.608 2.455 8.95 8.664 8.95 16.895 0 9.097-5.198 17.183-17.612 27.146 11.26 13.862 20.21 24.982 27.862 32.634 7.074 7.075 11.549 7.653 13.57 8.086 1.3.289 2.021.289 3.031.289 1.01 0 1.589.721 1.589 1.3 0 1.011-.866 1.3-2.455 1.3H644.42c-7.074 0-10.538-.722-13.859-2.455-5.487-2.743-10.249-8.52-17.323-18.05-5.055-6.643-10.394-14.874-11.984-16.75-.72-.722-1.445-.866-2.31-.866L587.539 225c-.577 0-1.01.289-1.01 1.011v1.732c0 11.407.143 20.938.721 26.136.433 3.611 1.01 5.92 4.908 6.497 1.877.29 4.62.435 6.208.435 1.01 0 1.588.721 1.588 1.3 0 .866-1.011 1.3-2.598 1.3-7.364 0-17.903-.434-19.778-.434-2.454 0-10.54.433-15.592.433-1.588 0-2.454-.433-2.454-1.299 0-.578.433-1.3 2.022-1.3 1.875 0 3.32-.145 4.474-.435 2.6-.576 3.32-2.886 3.753-6.497.578-5.197.578-14.872.578-26.136v-21.66h.002z" fill="#FFF" fill-rule="nonzero"/></svg>