<svg width="112" height="16" xmlns="http://www.w3.org/2000/svg"><g fill="#FFF" fill-rule="nonzero"><path d="M13.694.919v2.806h-.562c-.28-.093-.374.094-.374.281-.842 2.9-1.778 5.707-2.713 8.608-.188.655-.375 1.31-.655 1.965 0 .093-.187.187-.281.187H4.805l-.093-.281A449.91 449.91 0 0 1 1.437 4.006c-.094-.28-.187-.28-.468-.28H.408V.918h5.988v2.806H5.179c.655 2.62 1.31 5.24 1.965 7.766h.094L9.39 3.725H8.173V.92h5.52zm9.45 3.742h4.022l.094 1.403c.28-.28.468-.56.655-.748 1.123-.936 2.432-1.123 3.836-.655 1.029.374 1.497 1.216 1.497 2.34v4.958h.842v2.807h-4.491V8.497c0-.561-.187-.842-.561-.936-.468-.093-.842 0-1.123.375l-.187.28-.094.281v3.462h.655v2.807h-5.146v-2.807h.749V7.468h-.749V4.66zm24.512 2.713h-.655V4.567H51.4v7.392h.842v2.807h-4.117v-1.03c-.187.188-.28.375-.468.468-1.029.936-2.807 1.123-4.023.562-.935-.468-1.403-1.217-1.403-2.246l-.094-4.678v-.374h-.842V4.66h4.491v5.988c0 .28 0 .561.094.748.093.375.467.562.842.562.374 0 .655-.187.842-.562.093-.093.093-.28.093-.467V7.374zm-25.168 2.994H16.22c0 .562 0 1.123.28 1.59.187.375.655.562 1.03.562.374 0 .842-.187 1.029-.655.093-.187.093-.374.187-.655h3.462c-.094 1.123-.562 2.059-1.497 2.714a4.723 4.723 0 0 1-2.152.842c-1.03.187-2.152.093-3.181-.187-1.404-.468-2.34-1.404-2.714-2.714a7.36 7.36 0 0 1 0-4.49c.562-1.778 1.872-2.808 3.743-3.088.842-.094 1.684-.094 2.526.187 1.871.561 2.9 1.778 3.275 3.742.187.749.187 1.404.28 2.152zm-6.175-1.965h2.433c0-.56 0-1.029-.562-1.31-.467-.28-.935-.28-1.31 0-.56.281-.56.75-.56 1.31zm54.92 1.965h-6.268c0 .562 0 1.123.28 1.59.281.469.656.562 1.124.562.467 0 .842-.28 1.029-.655l.187-.561h3.462c-.188 2.058-1.685 3.462-3.743 3.649-1.029.093-1.965.093-2.9-.28-1.404-.469-2.34-1.404-2.807-2.808-.468-1.497-.468-2.9 0-4.397.561-1.871 1.965-2.807 3.836-3.088.842-.093 1.778-.093 2.62.187 1.777.562 2.713 1.778 3.087 3.462.094.842.094 1.59.094 2.34zm-6.08-1.965h2.432c0-1.029-.468-1.59-1.31-1.496-.749.093-1.216.654-1.123 1.496zM34.557 4.567h1.122V2.603c0-.375.094-.468.468-.562l2.9-.655v3.181h1.591v2.807h-1.59v3.93c.093.655.561.935 1.122.842.094 0 .187 0 .375-.094v1.778c0 .842 0 .842-.842.936-.843.093-1.685.187-2.62 0-1.216-.281-1.778-1.03-1.778-2.246V7.374h-.842c.094-.842.094-1.777.094-2.807zm18.431 10.199v-2.807h.842V7.468h-.842V4.66h3.93c0 .468.093 1.03.093 1.59.094-.093.094-.187.094-.28.28-.842.936-1.31 1.778-1.404h1.31c.093 0 .187.094.187.188v3.087c-.468 0-1.03-.093-1.497 0-1.03.187-1.497.749-1.59 1.778v2.245h1.122v2.807c-1.684.094-3.556.094-5.427.094zM79.314 1.019c.56.093 1.122.093 1.59.28 2.152.562 3.275 3.182 2.152 5.146-.28.468-.655.749-1.123 1.03a5.367 5.367 0 0 0-.655.374c.094.093.187.093.281.093 1.497.468 2.152 1.59 2.245 2.994.188 2.059-1.122 3.556-3.18 3.743-.656.093-1.31.093-1.872.093h-6.456v-2.807h1.217V3.732h-1.217V.925c2.433.094 4.679.094 7.018.094zm-2.059 8.233v2.713c0 .094.094.188.187.188h1.59c.375 0 .75-.188.936-.562.468-.842 0-1.965-.935-2.152-.562-.187-1.123-.187-1.778-.187zm0-2.62c.562 0 1.03 0 1.59-.093.656-.094 1.03-.655 1.03-1.31s-.374-1.216-.936-1.31c-.561-.093-1.122-.093-1.684-.093v2.806zm34.244.936h-1.404a.201.201 0 0 0-.187.187v3.555c0 .749.468 1.123 1.31.936h.187v2.246c0 .187 0 .28-.187.28-1.03.187-2.058.28-3.181.094-1.216-.28-1.778-.936-1.778-2.152v-5.24h-.374c-.561 0-.468.094-.468-.467v-2.34h1.123v-1.87c0-.656-.094-.562.561-.656a39.62 39.62 0 0 0 2.807-.654v3.18h1.684c-.093 1.03-.093 1.965-.093 2.901zm-11.04 1.03v-.936c0-.562-.375-.936-.843-.936-.467 0-.935.374-.935.842v.374h-3.368c-.094-1.31.56-2.432 1.777-2.994 1.778-.748 3.65-.748 5.427.094 1.122.561 1.684 1.403 1.684 2.62v4.21h.842v2.807h-4.21c0-.375-.094-.655-.094-1.123-.093.094-.187.187-.187.28-1.123 1.31-3.181 1.31-4.304.75-.842-.469-1.216-1.31-1.31-2.246-.093-2.059.936-3.369 3.088-3.743l2.245-.187c-.093.187 0 .187.187.187zm0 1.777h-.843c-.842.093-1.216.748-1.122 1.497.093.655.655 1.029 1.31.748.374-.093.56-.374.654-.748v-1.497zm-5.989.093h-6.268c0 .655 0 1.217.374 1.685.28.374.655.467 1.123.467.468 0 .748-.28.935-.655l.188-.561h3.461c-.093 1.123-.561 2.058-1.497 2.713-1.122.842-2.339 1.03-3.649.936-.56 0-1.029-.094-1.59-.28-1.403-.375-2.246-1.31-2.713-2.62-.468-1.591-.562-3.182.093-4.772.655-1.684 1.965-2.62 3.743-2.807.842-.093 1.777 0 2.62.187 1.777.562 2.713 1.871 3.087 3.65 0 .654.093 1.309.093 2.057zm-3.648-1.87c0-.562-.094-1.124-.562-1.404-.468-.28-.935-.28-1.403.093-.374.281-.468.749-.468 1.31h2.433z"/></g></svg>