<svg width="860" height="635" xmlns="http://www.w3.org/2000/svg"><g fill="none" fill-rule="evenodd"><path d="M151.261 537.776c-3.167-15.34-15.753-19.426-29.86-20.74-45.529-4.21-53.593 29.807-53.593 44.169 0 24.554 7.189 44.876 51.864 44.876 8.251 0 31.006-8.483 31.006-22.26h64.282c-2.604 40.874-71.346 50.67-101.331 50.67-62.116 0-115.313-11.568-112.73-72.724 1.834-43.667 43.092-74.308 125.212-72.41 45.758 1.083 89.745 15.32 89.912 48.42h-64.762zm643.849 0c-3.146-15.34-15.753-19.426-29.839-20.74-45.53-4.21-53.593 29.807-53.593 44.169 0 24.554 7.168 44.876 51.884 44.876 8.252 0 30.985-8.483 30.985-22.26h64.283c-2.605 40.874-71.326 50.67-101.331 50.67-62.116 0-115.292-11.568-112.73-72.724 1.834-43.667 43.113-74.308 125.232-72.41 45.759 1.083 89.725 15.32 89.913 48.42H795.11zm-567.585-45.48h83.453l71.201 99.778h.563v-99.779h53.489v138.549h-79.953l-74.701-99.8h-.563v99.8h-53.489V492.295zm225.23 0h101.352c48.717 0 77.368 13.59 77.368 34.141 0 12.131-12.002 27.118-38.736 31.537v.396c32.193 1.918 44.07 22.261 44.07 34.455 0 24.428-27.921 38.019-82.41 38.019H452.755V492.295zm58.656 53.818h16.816c25.88 0 39.612-2.022 39.612-12.757 0-11.526-11.44-15.34-34.736-15.34H511.39v28.097h.02zm0 55.673h16.816c31.193 0 42.633-3.272 42.633-14.007 0-11.526-14.44-15.361-37.736-15.361H511.41v29.368z" fill="#FFF" fill-rule="nonzero"/><path d="M750.227 476.975c65.95 0 102.581-57.008 98.518-110.743-6.501-70.035-70.826-96.902-105.832-91.212 29.297-16.279 68.387-92.838 8.96-153.097-47.217-44.794-107.458-28.515-128.628-8.963 11.398-37.456-7.335-114.828-83.85-127.043-69.179-8.15-99.31 39.916-108.27 62.698-13.044-32.558-44.8-67.575-104.227-62.698-75.702 8.15-99.31 80.624-87.912 123.791-30.13-20.364-81.411-29.327-126.19 8.963-57.803 57.8-26.88 135.985 4.896 154.723-35.027-3.252-90.37 20.364-102.581 82.25-13.024 76.538 45.592 121.331 102.581 121.331h632.535z"/><path d="M261.782 167.508l116.417 266.3-240.17-164.5c-60.26-39.894-48.05-108.303-14.648-138.443 47.217-39.895 113.98-26.055 138.4 36.643zM421.332 104.81l-42.32 298.045L258.53 119.484C232.484 48.636 291.079 2.217 330.169 1.404c44.78-4.898 100.936 29.306 91.163 103.406zM604.512 118.671L484.844 402.875l-38.257-256.524c-3.272-39.082 21.17-39.894 30.13-47.231-1.625-5.712-13.836-5.712-13.836-5.712h-22.795C437.648 26.625 489.74-2.682 532.082.57c45.57 1.647 96.851 54.57 72.43 118.101zM726.639 267.683L486.49 433.016l113.146-263.049c34.194-83.062 113.98-66.783 142.464-35.017 30.923 30.932 39.883 93.65-15.461 132.733zM751.852 462.322H474.259l225.5-157.183c55.364-36.643 113.98-3.251 129.44 44.793 16.295 53.756-20.357 112.39-77.347 112.39zM33.01 346.68c21.17-55.381 79.786-74.933 131.879-41.54l225.52 157.182H116.86c-56.99 0-101.748-52.13-83.85-115.641z" fill="#FFF"/></g></svg>