<svg width="748" height="147" xmlns="http://www.w3.org/2000/svg" xmlns:xlink="http://www.w3.org/1999/xlink"><defs><path id="a" d="M.346.145H50.74v76.837H.346z"/></defs><g fill="none" fill-rule="evenodd"><path d="M66.5 0l-1.533 26.422c-4.438-.158-8.637-.307-13.055-.462l-.901-16.288H30.692v38.946h8.802l2.06-8.577h9.071v26.79h-8.909l-2.238-8.856h-8.747v41.338h20.426l1.976-17.877c4.581.152 9.039.298 13.745.455l1.068 27.39H1.102v-9.595l9.386-1.616V10.648L0 9.5V0h66.5zM328.904 97.6c5.938 2.516 11.641 2.646 17.463.604 1.161-.407 1.834-1.093 2.105-2.206.705-2.896 1.584-5.775 2.005-8.716 1.28-8.934 1.116-17.924.45-26.891a40.687 40.687 0 0 0-1.703-9.033c-1.982-6.35-6.29-8.795-12.87-7.707-.327.054-.647.154-.973.217-3.953.76-6.466 3.767-6.469 7.81-.01 14.56-.007 29.119-.008 43.678V97.6zm-25.868 48.742l.502-7.51c2.437-.54 4.692-1.037 7.09-1.566V44.02l-8.41-1.273v-7.785l22.244-3.091 2.33 8.33c.306-.272.636-.504.893-.801 5.426-6.241 12.425-8.391 20.417-7.623 10.028.965 15.548 7.293 18.316 16.328 1.234 4.027 2.063 8.267 2.382 12.465.658 8.638.805 17.327-.868 25.892-.618 3.162-1.486 6.343-2.749 9.297-3.859 9.02-10.924 13.776-20.632 14.625-4.957.434-9.813-.045-14.427-2.096-.289-.128-.617-.168-1.086-.29v29.275l7.56 1.56-.505 7.508h-33.057zM550.444 99.79c2.822.563 5.25 1.05 7.829 1.566-.145 2.703-.282 5.241-.428 7.926H532.39c-.027-.573-.078-1.128-.078-1.682 0-16.915.05-33.83-.045-50.745-.013-2.275-.535-4.62-1.235-6.8-.85-2.647-2.958-4.08-5.694-4.682-2.627-.576-5.21-.363-7.602.646-2.113.891-3.803 2.561-3.811 5.065-.046 15.998-.014 31.996-.003 47.994 0 .16.078.32.185.734l7.484 1.528-.485 7.955h-32.81v-7.914c2.519-.54 4.846-1.04 7.317-1.572V44.79l-8.367-.959v-8.106l21.634-3.093c.664 2.412 1.306 4.752 1.935 7.041 1.639-1.237 3.332-2.706 5.204-3.895 7.148-4.543 14.846-5.32 22.719-2.465 6.619 2.403 10.084 7.638 11.234 14.443.318 1.878.442 3.81.448 5.718.037 14.498.02 28.996.023 43.496v2.82zM100.078 99.81l7.542 1.534-.473 7.937H73.999l.422-7.908 7.028-1.531c.525-1.787.658-52.258.105-55.068l-8.346-.936v-8.091l21.684-3.108 1.966 7.205c.607-.537 1.293-1.17 2.005-1.771 6.93-5.854 14.89-7.61 23.604-5.487 7.56 1.844 11.894 6.987 13.419 14.508.394 1.943.53 3.966.536 5.953.043 14.577.022 29.155.022 43.733v3.006l7.797 1.53c-.064 1.335-.151 2.624-.182 3.916-.03 1.31-.006 2.626-.006 4.063H118.44v-2.89c-.001-15.994.013-31.99-.023-47.983a37.999 37.999 0 0 0-.455-5.716c-.687-4.428-3.304-7.053-7.772-7.477-3.238-.31-6.511-.234-8.884 2.686-.935 1.15-1.388 2.322-1.381 3.849.057 12.162.03 24.324.03 36.486 0 2.998-.008 5.997.005 8.997.003.816.072 1.63.117 2.564M667.532 42.754l-8.41-.834v-7.14c8.203-.936 16.435-1.876 24.752-2.823 1.008 3.094 2.09 5.9 2.078 9.08-.074 18.578-.037 37.158-.037 55.737v3.006l7.69 1.578-.811 7.91h-21.307l-2.006-6.145c-.697.545-1.217.9-1.676 1.32-8.697 7.946-20.375 7.135-27.798 3.54-5.754-2.79-8.866-7.65-9.95-13.834-.357-2.038-.507-4.136-.513-6.207-.043-13.997-.022-27.994-.022-41.99v-3.139c-2.918-.317-5.613-.608-8.437-.913v-7.107l24.636-2.857c.684 2.806 1.885 5.334 1.877 8.238a9085.084 9085.084 0 0 0-.003 43.99c.003 1.99.13 3.994.392 5.967.713 5.381 4.17 8.572 9.559 8.664 1.882.031 3.81-.342 5.654-.79 2.022-.493 4.578-3.96 4.58-5.993.01-16.162-.001-32.325-.012-48.488 0-.154-.091-.307-.236-.77M284.555 66.03c-.202-2.315-.313-4.218-.544-6.104-.548-4.47-1.392-8.876-3.65-12.858-2.479-4.368-6.24-5.731-11.002-4.197-1.874.605-3.113 1.657-3.863 3.506-2.494 6.156-3.726 12.564-4.032 19.172-.02.455.16.917.277 1.544l22.814-1.064m-22.722 9.842c-.007 6.225.957 11.74 4.28 16.596 2.964 4.335 7.06 6.608 12.416 6.698 5.007.081 9.747-.909 14.326-2.848.604-.254 1.221-.48 2.057-.808 1.01 2.308 1.996 4.566 3.11 7.115-1.353.916-2.637 1.957-4.066 2.728-9.228 4.984-18.936 6.704-29.15 3.724-8.559-2.495-14.168-8.42-17.858-16.294-4.067-8.68-4.985-17.883-4.195-27.322.482-5.762 1.727-11.35 4.177-16.617 3.981-8.563 10.208-14.533 19.667-16.523 9.033-1.9 17.438-.752 24.376 5.938 4.123 3.975 6.4 9.046 7.982 14.47 1.623 5.561 2.188 11.28 2.207 17.02.006 1.876-1.097 3.752-1.703 5.658-12.624.156-24.994.31-37.626.465M602.899 66.037c-.23-5.248-.816-10.069-2.297-14.764-.757-2.398-1.941-4.53-3.492-6.537-2.956-3.824-12.128-3.05-13.535 2.192-1.14 4.24-2.576 8.39-3.161 12.767-.316 2.363-.753 4.718-.294 7.397 7.549-.35 14.98-.695 22.779-1.055m15.008 9.373l-37.606.455c-.295 2.711.143 5.225.625 7.716.737 3.806 2.14 7.321 4.678 10.332 2.854 3.384 6.469 5.091 10.88 5.241 4.819.166 9.444-.656 13.897-2.49.913-.375 1.84-.713 2.962-1.145l3.105 7.22c-.41.271-.827.533-1.232.816-8.001 5.576-16.966 7.76-26.536 6.707-11.804-1.299-19.685-8.239-23.962-18.985-5.534-13.905-5.294-28.033.398-41.857 3.655-8.877 10.109-15.014 19.767-17.084 7.574-1.623 14.903-1.137 21.53 3.437 4.706 3.248 7.583 7.864 9.613 13.063 2.61 6.683 3.608 13.678 3.445 20.803-.044 1.906-1.002 3.791-1.564 5.771M469.168 66.02c-.226-2.51-.35-4.727-.64-6.922-.549-4.131-1.368-8.204-3.462-11.885-2.713-4.771-6.785-6.142-11.862-4.076-1.283.522-2.187 1.315-2.784 2.63-2.225 4.9-3.317 10.076-3.953 15.372-.224 1.86-.332 3.737-.525 5.967l23.226-1.086m14.907 9.387l-37.642.465c.072 6.773 1.14 12.89 5.413 18.033 2.745 3.304 6.29 5.058 10.63 5.232 4.904.197 9.613-.61 14.15-2.466.913-.374 1.832-.733 2.934-1.172l3.058 7.078c-.875.644-1.683 1.325-2.572 1.88-8.64 5.407-18.06 7.274-28.002 5.344-9.287-1.801-15.77-7.603-19.95-15.935-4.255-8.477-5.457-17.563-4.815-26.946.428-6.271 1.625-12.37 4.293-18.105 3.127-6.72 7.685-12.143 14.724-14.912 8.249-3.247 16.564-3.567 24.586.773 5.272 2.854 8.584 7.52 10.894 12.926 2.996 7.008 3.998 14.428 3.995 21.96 0 1.96-1.107 3.919-1.696 5.845M212.266 32.645l1.694 6.774c.882-.534 1.769-1.09 2.674-1.618 5.274-3.076 11.01-4.55 17.05-5.21 2.92-.317 4.986.626 6.67 3.072l-2.281 20.39c-4.187-.172-8.15-.334-12.254-.504l-1.345-10.916c-2.977.242-5.468 1.149-7.812 2.725v52.504c2.463.558 4.94 1.123 7.59 1.724l-.43 7.659H191.08v-7.61c2.345-.597 4.567-1.166 6.844-1.747V44.766l-7.876-.914v-8.125c7.4-1.026 14.699-2.04 22.219-3.082" fill="#FFF"/><g transform="translate(697 32.342)"><mask id="b" fill="#fff"><use xlink:href="#a"/></mask><path d="M1.221 76.982c.122-2.688.234-5.16.354-7.742l6.791-1.677V12.457c-2.532-.307-5.127-.62-8.02-.973v-8.09L22.66.318l1.645 6.435c3.147-1.449 6.2-3.179 9.466-4.265C36.977 1.421 40.397.982 43.733.316c2.886-.577 5.24.275 7.006 3.045l-2.27 20.325-12.227-.457c-.47-3.74-.923-7.333-1.427-11.323l-7.707 2.687V67.54l7.575 1.718-.49 7.725H1.22z" fill="#FFF" mask="url(#b)"/></g><path d="M409.067 44.178l-7.805 2.867V99.88l7.739 1.728c-.22 2.621-.424 5.078-.641 7.675h-32.665v-7.638l6.94-1.758V44.772c-2.654-.306-5.254-.606-7.978-.918v-8.105l22.15-3.106c.637 2.224 1.26 4.41 1.88 6.584 2.15-1.123 4.248-2.303 6.417-3.334 4.032-1.916 8.369-2.649 12.758-3.256 2.914-.404 5.219.314 7.12 2.973l-2.235 20.416-12.276-.449-1.404-11.399M170.433 18.059v15.496h13.624l-.855 9.727-12.245 1.4c-.09.706-.243 1.343-.242 1.979.006 14.903.027 29.806.054 44.709.002.996.006 2.003.142 2.988.432 3.119 2.578 5.074 5.737 5.167 2.483.073 4.97.014 7.753.014l.814 8.024c-1.954 1.316-4.077 1.67-6.18 2.07-4.607.879-9.227 1.21-13.89.405-7.114-1.231-11.753-6.036-12.584-13.188-.172-1.483-.18-2.99-.18-4.487-.015-14.986-.009-29.972-.02-44.958-.002-.89-.119-1.78-.186-2.71l-8.6-1.433.426-9.483c3.205-.157 6.318-.31 9.694-.474l4.321-14.604c4.082-.21 8.052-.415 12.417-.642" fill="#FFF"/></g></svg>