<svg width="220" height="76" xmlns="http://www.w3.org/2000/svg"><g fill="none" fill-rule="evenodd"><path d="M0 0h220v76H0z"/><g fill="#FFF"><path d="M0 17.5h9.7v40.9H0v16.2h51.9V58.4h-9.8V17.5h9.8V0H0zM131.8 58.4V36.9c0-13.7-10-18.7-22.4-18.7-8.8 0-15.5 2.4-21.3 9.1-.4.5-.9 1.1-1.5 1.6V17.6h-32v16.3h7.3v24.5h-7.3v16.3h40.6V58.4h-7.7V44.3c0-6 4.5-10.4 10.5-10.4 4.7 0 8.4 2.3 8.4 7.4v17h-7.5v16.3h39.7v-16c0-.1-.1-.2-.1-.3h-6.7v.1z"/><path d="M203.2 53.6h-21.8c0 6-4.4 8.8-9.3 8.8-9.4 0-10.2-7.9-10.2-15.4v-.2c0-7.5.7-15.4 10.2-15.4 7.4 0 8.7 6.4 8.9 12.5l21.9-2.4c-2.3-22.3-24.3-23.7-29.8-23.7h-1.2c-18.1 0-35.9 8.9-35.9 29.1 0 4.3.8 8.1 2.3 11.4h.1v.3c5.4 12 19.4 17.4 33.5 17.4 11.5 0 27.6-2.8 31.2-20.5l.1-1.9z"/><circle cx="210.7" cy="65.7" r="9.2"/></g></g></svg>