<svg width="1024" height="222" xmlns="http://www.w3.org/2000/svg"><path d="M0 162.086c0 10.75 8.756 19.488 20.204 19.488h80.81v-20.161h-80.81v-20.157h79.462c10.774 0 21.548-8.738 21.548-19.489v.673-39.65c0-10.75-10.1-21.502-21.548-21.502H20.204C9.427 61.288 0 72.04 0 82.791v79.295zm101.013-40.991H20.204V80.776h80.81v40.319zM371.05 60.619h-80.135c-10.774 0-21.549 10.752-21.549 21.503v79.964-.673c0 10.75 10.775 20.161 21.549 20.161h79.461v20.157h-80.809v20.161h81.483c10.775 0 19.53-9.41 19.53-20.16V82.121c0-10.751-8.755-21.503-19.53-21.503zm-.674 100.794h-80.809V80.776h80.81v80.637zM215.491 60.619H155.56c-10.775 0-20.879 10.752-20.879 21.503v99.452h20.205V80.776h60.605c10.775 0 20.204 10.08 20.204 21.503v79.295h20.2V102.28c0-22.175-18.181-41.66-40.404-41.66zm289.57 100.794h-80.809v-59.807c0-10.75 10.774-21.502 22.223-21.502h58.586v100.797h20.201v-98.78c0-10.75-8.082-21.502-18.856-21.502h-59.931c-22.223 0-42.427 19.485-42.427 41.66v59.807c0 10.75 11.448 19.488 22.222 19.488h35.02c18.182 0 37.038-7.392 43.771-20.161v20.161-20.161zM962.982.14h-20.2v181.434h20.2V80.776h60.609V60.62h-60.609V.14zM680.148 162.086c0 10.75 6.059 19.488 16.837 19.488h77.443v20.157h-74.076v20.161h76.768c10.775 0 17.508-9.41 17.508-20.834v.673-119.61c0-10.75-6.733-21.502-17.508-21.502h-80.135c-10.778 0-16.837 10.752-16.837 21.503v79.964zm94.28-.673h-74.076V80.776h74.076v80.637zM639.743 60.619h-78.117c-10.774 0-22.893 10.752-22.893 21.503v79.964-.673c0 10.75 12.119 20.161 22.893 20.161h98.321V.14h-20.204V60.62zm0 100.794h-80.81V80.776h80.81v80.637zm168.353.673c0 10.75 11.448 19.488 22.222 19.488h78.79v-20.161h-80.809v-20.157h82.16c10.772 0 18.848-8.738 18.848-19.489v.673-39.65c0-10.75-8.076-21.502-18.848-21.502h-80.14c-10.775 0-22.223 10.752-22.223 21.503v79.295zm101.011-40.991H828.3V80.776h80.808v40.319z" fill="#FFF" fill-rule="nonzero"/></svg>