<svg xmlns="http://www.w3.org/2000/svg" width="128" height="128" fill="none"><path fill="#ACCCF8" stroke="#1772EB" stroke-linecap="round" stroke-linejoin="round" stroke-width="3.54" d="M71.254 79.533H28.839a5.12 5.12 0 0 1-2.357-.57 4.71 4.71 0 0 1-1.76-1.57 4.294 4.294 0 0 1-.717-2.169 4.252 4.252 0 0 1 .508-2.22L45.72 33.49a4.646 4.646 0 0 1 1.784-1.817A5.106 5.106 0 0 1 50.047 31c.898 0 1.778.233 2.542.672a4.646 4.646 0 0 1 1.784 1.817L75.58 73.004c.37.688.545 1.452.508 2.22a4.294 4.294 0 0 1-.717 2.17 4.71 4.71 0 0 1-1.76 1.568 5.12 5.12 0 0 1-2.357.571Z"/><path fill="#fff" stroke="#1772EB" stroke-linecap="round" stroke-linejoin="round" stroke-width="3.54" d="M59.349 73.933c0 5.941 2.352 11.639 6.539 15.84a22.288 22.288 0 0 0 15.786 6.56c5.921 0 11.6-2.36 15.787-6.56A22.437 22.437 0 0 0 104 73.932c0-5.94-2.352-11.638-6.54-15.839a22.288 22.288 0 0 0-15.786-6.56c-5.92 0-11.6 2.36-15.786 6.56a22.438 22.438 0 0 0-6.54 15.84Z"/><path stroke="#1772EB" stroke-linecap="round" stroke-linejoin="round" stroke-width="3.54" d="M71.254 79.533H28.839a5.12 5.12 0 0 1-2.357-.57 4.71 4.71 0 0 1-1.76-1.57 4.294 4.294 0 0 1-.717-2.169 4.252 4.252 0 0 1 .508-2.22L45.72 33.49a4.646 4.646 0 0 1 1.784-1.817A5.107 5.107 0 0 1 50.047 31c.898 0 1.778.233 2.542.672a4.646 4.646 0 0 1 1.784 1.817L75.58 73.004c.37.688.545 1.452.508 2.22a4.294 4.294 0 0 1-.717 2.17 4.71 4.71 0 0 1-1.76 1.568 5.12 5.12 0 0 1-2.357.571Z"/></svg>