<svg xmlns="http://www.w3.org/2000/svg" width="128" height="128" fill="none"><path fill="#fff" d="M102.533 42.438v54.307a6.789 6.789 0 0 1-6.788 6.788h-64.49a6.788 6.788 0 0 1-6.788-6.788V42.438h78.066Z"/><path fill="#fff" d="M24.467 42.438v54.307a6.789 6.789 0 0 0 6.788 6.788h3.395l61.095-61.095H24.467ZM102.533 42.438H24.467V32.256a6.789 6.789 0 0 1 6.788-6.789h64.49a6.79 6.79 0 0 1 6.788 6.789v10.182Z"/><path stroke="#1772EB" stroke-linecap="round" stroke-linejoin="round" stroke-width="3.54" d="M31.255 25.467h64.49s6.788 0 6.788 6.789v64.489s0 6.788-6.788 6.788h-64.49s-6.788 0-6.788-6.788v-64.49s0-6.788 6.788-6.788ZM24.467 42.438h78.066"/><path fill="#fff" d="M70.288 52.62h20.365s1.697 0 1.697 1.698v13.576s0 1.697-1.697 1.697H70.288s-1.697 0-1.697-1.697V54.318s0-1.697 1.697-1.697Z"/><path fill="#fff" d="M70.288 52.62a1.697 1.697 0 0 0-1.697 1.698v13.576a1.697 1.697 0 0 0 .496 1.202L85.562 52.62H70.288Z"/><path stroke="#1772EB" stroke-linecap="round" stroke-linejoin="round" stroke-width="3.54" d="M70.288 52.62h20.365s1.697 0 1.697 1.698v13.576s0 1.697-1.697 1.697H70.288s-1.697 0-1.697-1.697V54.318s0-1.697 1.697-1.697Z"/><path fill="#fff" stroke="#1772EB" stroke-linecap="round" stroke-linejoin="round" stroke-width="3.54" d="M70.288 76.38h20.365s1.697 0 1.697 1.697v13.576s0 1.697-1.697 1.697H70.288s-1.697 0-1.697-1.697V78.076s0-1.697 1.697-1.697ZM36.347 52.62h20.365s1.697 0 1.697 1.698v23.759s0 1.697-1.697 1.697H36.347s-1.697 0-1.697-1.697v-23.76s0-1.696 1.697-1.696Z"/><path fill="#fff" stroke="#1772EB" stroke-linecap="round" stroke-linejoin="round" stroke-width="3.54" d="M41.438 64.5a5.091 5.091 0 1 0 10.183 0 5.091 5.091 0 0 0-10.183 0Z"/><path fill="#fff" stroke="#1772EB" stroke-linecap="round" stroke-linejoin="round" stroke-width="3.54" d="M38.044 79.774a9.45 9.45 0 0 1 8.485-10.183 9.45 9.45 0 0 1 8.486 10.183H38.044Z"/><path stroke="#1772EB" stroke-linecap="round" stroke-linejoin="round" stroke-width="3.54" d="M36.347 86.562h13.576M36.347 93.35h13.576M36.347 33.104a.849.849 0 1 1 0 1.698.849.849 0 0 1 0-1.698ZM46.53 33.104a.849.849 0 1 1-.001 1.698.849.849 0 0 1 0-1.698ZM56.712 33.104a.849.849 0 1 1 0 1.698.849.849 0 0 1 0-1.698Z"/><path fill="#fff" d="M99.992 45c10.768 0 17.498-11.667 12.113-21-5.384-9.334-18.844-9.333-24.227 0a14.008 14.008 0 0 0-1.874 7c0 7.732 6.262 14 13.988 14Z"/><path fill="#fff" d="M99.991 17c-10.767.014-17.483 11.689-12.088 21.015a14.004 14.004 0 0 0 2.896 3.523l19.718-19.736A13.932 13.932 0 0 0 99.991 17Z"/><path stroke="#1772EB" stroke-linecap="round" stroke-linejoin="round" stroke-width="3.54" d="M99.992 45c10.768 0 17.498-11.667 12.113-21-5.384-9.334-18.844-9.333-24.227 0a14.008 14.008 0 0 0-1.874 7c0 7.732 6.262 14 13.988 14Z"/><path stroke="#1772EB" stroke-linecap="round" stroke-linejoin="round" stroke-width="3.54" d="m106.225 26.94-6.76 9.04a1.747 1.747 0 0 1-2.635.186l-3.497-3.5"/></svg>