<svg xmlns="http://www.w3.org/2000/svg" width="69" height="36" fill="none"><g fill="#fff" clip-path="url(#a)"><path d="M16.802 16.474H8.846v2.371h5.643c-.279 3.324-3.033 4.741-5.634 4.741-3.326 0-6.228-2.627-6.228-6.31 0-3.59 2.767-6.352 6.236-6.352 2.677 0 4.254 1.713 4.254 1.713l1.653-1.718s-2.122-2.372-5.992-2.372c-4.927 0-8.739 4.176-8.739 8.686 0 4.42 3.586 8.73 8.866 8.73 4.642 0 8.041-3.195 8.041-7.916 0-.997-.144-1.573-.144-1.573ZM23.323 14.758c-3.265 0-5.604 2.562-5.604 5.551 0 3.033 2.269 5.643 5.643 5.643 3.054 0 5.555-2.343 5.555-5.578 0-3.707-2.91-5.616-5.594-5.616Zm.032 2.199c1.606 0 3.127 1.303 3.127 3.402 0 2.056-1.515 3.396-3.134 3.396-1.779 0-3.183-1.43-3.183-3.412 0-1.938 1.386-3.386 3.19-3.386ZM35.51 14.758c-3.264 0-5.604 2.562-5.604 5.551 0 3.033 2.27 5.643 5.643 5.643 3.054 0 5.555-2.343 5.555-5.578 0-3.707-2.91-5.616-5.593-5.616Zm.033 2.199c1.606 0 3.127 1.303 3.127 3.402 0 2.056-1.515 3.396-3.134 3.396-1.78 0-3.183-1.43-3.183-3.412 0-1.938 1.386-3.386 3.19-3.386ZM47.462 14.766c-2.998 0-5.353 2.635-5.353 5.593 0 3.369 2.731 5.603 5.3 5.603 1.59 0 2.435-.633 3.058-1.36v1.104c0 1.931-1.168 3.087-2.93 3.087-1.703 0-2.558-1.27-2.854-1.993l-2.142.9c.76 1.614 2.29 3.297 5.014 3.297 2.979 0 5.25-1.885 5.25-5.837V15.102h-2.338v.948c-.718-.777-1.7-1.284-3.005-1.284Zm.216 2.194c1.47 0 2.978 1.26 2.978 3.41 0 2.187-1.505 3.392-3.01 3.392-1.597 0-3.084-1.302-3.084-3.37 0-2.15 1.544-3.432 3.117-3.432ZM63.2 14.75c-2.827 0-5.2 2.259-5.2 5.59 0 3.525 2.646 5.617 5.471 5.617 2.36 0 3.807-1.296 4.671-2.456l-1.928-1.288c-.5.78-1.335 1.541-2.73 1.541-1.568 0-2.288-.862-2.735-1.697l7.475-3.114-.387-.913c-.723-1.787-2.407-3.28-4.637-3.28Zm.098 2.153c1.018 0 1.752.544 2.063 1.196l-4.993 2.094c-.215-1.622 1.316-3.29 2.93-3.29ZM54.438 25.625h2.455v-16.5h-2.456v16.5Z"/></g><defs><clipPath id="a"><path fill="#fff" d="M.008 0h68.25v35.181H.009z"/></clipPath></defs></svg>