<svg xmlns="http://www.w3.org/2000/svg" width="83" height="36" fill="none"><g clip-path="url(#a)"><mask id="b" width="83" height="22" x="0" y="10" maskUnits="userSpaceOnUse" style="mask-type:luminance"><path fill="#fff" d="M.82 10.832h81.595v21.102H.82V10.832Z"/></mask><g fill="#fff" mask="url(#b)"><path d="m13.137 20.116-.861 4.79c-.14.864-.704 1.093-1.195 1.093H7.32l1.564-8.79c-1.599-.74-3.18-1.197-4.48-1.197-1.23 0-2.232.334-2.882 1.127-.474.564-.703 1.268-.703 2.096 0 2.519 1.95 5.972 5.306 8.807 2.987 2.503 6.274 3.893 8.662 3.893 1.195 0 2.161-.37 2.794-1.092.492-.563.703-1.303.703-2.131 0-2.43-1.967-5.83-5.148-8.596Z"/><path stroke="#000" stroke-width=".5" d="M49.118 18.516h.228l.021-.228c.07-.768-.061-1.399-.352-1.91-.29-.508-.728-.877-1.238-1.142-1.01-.524-2.34-.656-3.508-.656-1.175 0-2.674.22-3.889.869-1.228.656-2.177 1.761-2.177 3.503 0 .978.413 1.644 1.029 2.102.6.447 1.385.691 2.132.87.271.064.544.122.804.176l.292.063c.348.074.661.148.926.235.268.088.463.183.588.29.117.099.168.202.168.333 0 .198-.107.364-.322.496-.219.134-.527.214-.855.223-.62 0-.891-.195-1.017-.381-.137-.202-.151-.463-.12-.671l.042-.287H37.24l-.02.228c-.07.774.05 1.422.325 1.956s.698.937 1.208 1.235c1.01.59 2.383.78 3.724.78 1.951 0 3.608-.388 4.786-1.157 1.188-.776 1.876-1.936 1.876-3.426 0-.946-.432-1.601-1.063-2.061-.617-.45-1.425-.717-2.198-.918-.3-.077-.6-.146-.886-.212l-.25-.058c-.36-.084-.686-.164-.963-.255-.28-.092-.487-.188-.62-.293-.126-.1-.169-.19-.169-.29 0-.1.056-.21.211-.306.158-.098.399-.166.699-.166.578 0 .837.146.954.28.12.134.147.317.132.508l-.021.27H49.117Zm16.036-2.153.199-1.21.048-.29h-4.352l-.036.205-1.967 10.886-.053.294h3.549c.283 0 .6-.066.874-.274.276-.21.478-.543.566-1.022v-.001l.51-2.621v-.001c.224-1.176.575-1.914 1.037-2.36.455-.438 1.051-.626 1.845-.626.34 0 .706.066.975.134l.261.065.046-.265.756-4.333.042-.24-.239-.048a3.772 3.772 0 0 0-.715-.075h-.002c-.827 0-1.559.21-2.21.658a4.837 4.837 0 0 0-1.134 1.123Zm-6.25-1.5h-1.862l.545-3.072.052-.293h-3.425c-.283 0-.605.065-.88.273-.28.21-.483.545-.562 1.027v.002l-.367 2.062h-1.634l-.036.206-.563 3.136-.053.294h1.634l-.65 3.634c-.14.794-.232 1.446-.232 2 0 .473.098.888.343 1.228.245.34.616.576 1.104.733.961.31 2.46.34 4.636.19l.196-.014.033-.194.527-3.1.05-.292h-1.09c-.29.005-.49-.015-.629-.054-.133-.037-.19-.086-.22-.13-.033-.05-.059-.133-.06-.285 0-.152.025-.345.069-.593v-.001l.56-3.122h2.162l.037-.206.562-3.136.052-.294h-.299ZM37.996 11.07l.053-.295H34.5a1.45 1.45 0 0 0-.88.273c-.28.21-.482.545-.561 1.027l-2.495 13.879-.053.294h3.549c.283 0 .605-.066.88-.273.28-.21.483-.545.562-1.027v-.002l2.494-13.876ZM6.62 10.6v-.018h-.25c-.723 0-1.31.496-1.473 1.235l-.002.009-.528 2.889-.054.295h4.745L7.056 25.97l-.054.296h4.077c.29 0 .616-.065.895-.272.285-.21.493-.543.582-1.026v-.003l1.686-9.937h3.197c.724 0 1.31-.496 1.474-1.235l.002-.009.527-2.889.054-.295H6.62Zm17.847 7.105h.002a1.338 1.338 0 0 1 1.342 1.402h-3.387c.117-.405.33-.725.615-.955.351-.284.833-.447 1.428-.447Zm-2.533 4.14h8.282l.033-.212c.088-.565.161-1.128.161-1.641 0-1.603-.5-2.963-1.476-3.922-.975-.959-2.397-1.49-4.186-1.49-3.649 0-7.523 2.597-7.523 7.138 0 1.6.6 2.833 1.621 3.66 1.015.82 2.42 1.222 4.005 1.222 2.59 0 5.548-.913 6.783-3.761l.151-.35h-4.668l-.073.121c-.353.585-.916.849-1.543.849-.498 0-.923-.19-1.203-.506-.239-.27-.384-.646-.364-1.108Zm52.856 1.137h-.003c-.45 0-.7-.155-.85-.373-.162-.236-.235-.585-.235-1.014 0-.942.225-1.754.602-2.322.374-.563.89-.881 1.502-.881.454 0 .752.158.943.39.196.24.3.587.3.998 0 .95-.232 1.763-.63 2.329-.394.56-.948.881-1.629.873Zm7.869-7.808.052-.293h-.298l-3.268-.001c-.325 0-.666.086-.95.319-.18.147-.325.345-.428.596-.646-.861-1.644-1.215-2.874-1.215-1.735 0-3.256.899-4.336 2.269-1.08 1.369-1.73 3.22-1.73 5.168 0 1.311.355 2.46 1.08 3.283.729.828 1.808 1.3 3.194 1.3 1.214 0 2.344-.39 3.382-1.34l-.132.71-.054.296h4.393l.037-.207 1.932-10.885Z"/></g></g><defs><clipPath id="a"><path fill="#fff" d="M.824 0h81.594v35.17H.824z"/></clipPath></defs></svg>