<svg width="151" height="50" fill="none" xmlns="http://www.w3.org/2000/svg"><g clip-path="url(#clip0)"><mask id="a" maskUnits="userSpaceOnUse" x="0" y="17" width="12" height="17"><path d="M0 17.426h11.903v16.137H0V17.426z" fill="#fff"/></mask><g mask="url(#a)"><path fill-rule="evenodd" clip-rule="evenodd" d="M11.903 17.657v2.12c0 .139-.091.23-.227.23H2.703v4.335h7.405c.136 0 .227.092.227.23v2.12c0 .14-.09.23-.227.23H2.703v6.41c0 .139-.09.23-.227.23H.227c-.136 0-.227-.091-.227-.23V17.657c0-.138.09-.23.227-.23h11.449c.136 0 .227.092.227.23" fill="#fff"/></g><path fill-rule="evenodd" clip-rule="evenodd" d="M25.452 26.74a97.18 97.18 0 00-2.692-6.778h-.534a97.373 97.373 0 00-2.703 6.777h5.93zm4.758 6.823h-2.475c-.137 0-.228-.07-.262-.208a62.804 62.804 0 00-1.18-4.126h-7.599a56.355 56.355 0 00-1.17 4.126c-.034.139-.125.208-.26.208h-2.386c-.159 0-.25-.092-.205-.254 1.431-5.14 3.612-10.811 5.815-15.583.103-.22.228-.3.444-.3h3.225c.216 0 .34.08.443.3 2.226 4.76 4.373 10.443 5.815 15.583.045.162-.046.254-.205.254z" fill="#fff"/><mask id="b" maskUnits="userSpaceOnUse" x="34" y="17" width="15" height="17"><path d="M34.276 17.126h14.617v16.736H34.276V17.126z" fill="#fff"/></mask><g mask="url(#b)"><path fill-rule="evenodd" clip-rule="evenodd" d="M34.276 25.633c0-5.003 3.248-8.507 7.882-8.507h.34c2.908 0 5.157 1.498 6.35 3.665.08.138.056.253-.08.323l-2 1.002c-.135.07-.305.07-.396-.103-.84-1.476-2.101-2.26-3.964-2.26h-.34c-2.92 0-4.93 2.352-4.93 5.764 0 3.423 1.976 5.716 4.93 5.716h.34c1.908 0 3.02-.657 3.873-1.66.113-.126.239-.15.375-.08l2.055 1.014c.08.046.114.104.114.162 0 .057-.023.103-.068.172-1.26 1.868-3.532 3.02-6.303 3.02h-.341c-4.714 0-7.837-3.285-7.837-8.23" fill="#fff"/></g><path fill-rule="evenodd" clip-rule="evenodd" d="M66.94 31.212v2.12c0 .139-.09.23-.227.23H54.787c-.136 0-.227-.091-.227-.23V17.657c0-.138.09-.23.227-.23h11.721c.136 0 .227.092.227.23v2.12c0 .14-.09.23-.227.23h-9.245v4.197h7.52c.135 0 .226.092.226.23v2.098c0 .138-.09.23-.227.23h-7.519v4.22h9.45c.136 0 .227.09.227.23zm17.762-2.317c0-1.5-.976-2.18-3.123-2.18h-5.35v4.335h5.35c2.18 0 3.123-.645 3.123-2.155zm-3.884-8.956H76.23v4.334h4.588c2.056 0 2.998-.68 2.998-2.167 0-1.487-.942-2.167-2.998-2.167zm6.656 9.198c0 2.824-2.136 4.426-5.906 4.426h-7.814c-.137 0-.227-.092-.227-.23V17.656c0-.138.09-.23.227-.23h7.12c3.67 0 5.668 1.475 5.668 4.172 0 1.775-.886 2.94-2.68 3.48 2.521.542 3.612 2.075 3.612 4.058" fill="#fff"/><mask id="c" maskUnits="userSpaceOnUse" x="92" y="17" width="17" height="17"><path d="M92.232 17.126h16.695v16.736H92.233l-.001-16.736z" fill="#fff"/></mask><g mask="url(#c)"><path fill-rule="evenodd" clip-rule="evenodd" d="M100.75 31.234c3.26 0 5.315-2.27 5.315-5.74 0-3.469-2.056-5.74-5.315-5.74h-.341c-3.26 0-5.315 2.271-5.315 5.74 0 3.47 2.055 5.74 5.315 5.74h.341zm-8.518-5.74c0-4.864 3.18-8.368 8.177-8.368h.34c4.998 0 8.178 3.504 8.178 8.368 0 4.864-3.18 8.368-8.177 8.368h-.341c-4.997 0-8.177-3.504-8.177-8.368z" fill="#fff"/></g><mask id="d" maskUnits="userSpaceOnUse" x="113" y="17" width="18" height="17"><path d="M113.538 17.126h16.696v16.736h-16.696V17.126z" fill="#fff"/></mask><g mask="url(#d)"><path fill-rule="evenodd" clip-rule="evenodd" d="M122.056 31.234c3.26 0 5.315-2.27 5.315-5.74 0-3.469-2.055-5.74-5.315-5.74h-.34c-3.26 0-5.316 2.271-5.316 5.74 0 3.47 2.056 5.74 5.315 5.74h.341zm-8.518-5.74c0-4.864 3.18-8.368 8.177-8.368h.341c4.998 0 8.178 3.504 8.178 8.368 0 4.864-3.18 8.368-8.178 8.368h-.34c-4.998 0-8.178-3.504-8.178-8.368z" fill="#fff"/></g><mask id="e" maskUnits="userSpaceOnUse" x="135" y="17" width="16" height="17"><path d="M135.926 17.426h14.09v16.137h-14.09V17.426z" fill="#fff"/></mask><g mask="url(#e)"><path fill-rule="evenodd" clip-rule="evenodd" d="M149.828 33.563h-2.93c-.194 0-.273-.046-.398-.196-2.056-2.455-4.486-4.9-6.553-6.697h-1.318v6.662c0 .139-.09.23-.227.23h-2.249c-.136 0-.227-.091-.227-.23V17.657c0-.138.09-.23.227-.23h2.25c.135 0 .226.092.226.23v6.362h1.34c2.215-2.028 4.261-4.218 5.929-6.42.114-.15.204-.172.34-.172h2.772c.136 0 .204.07.204.162 0 .046-.022.104-.08.173-2.441 3.054-4.86 5.555-7.098 7.492a69.025 69.025 0 017.917 8.022c.124.15.056.288-.125.288" fill="#fff"/></g></g><defs><clipPath id="clip0"><path fill="#fff" d="M0 0h151v50H0z"/></clipPath></defs></svg>
