<svg xmlns="http://www.w3.org/2000/svg" width="85" height="50" fill="none"><path d="M45.007 34.282h11.607c1.734 0 3.157-.604 4.314-1.812 1.112-1.169 1.69-2.566 1.69-4.15 0-3.208-4.848-5.472-6.716-5.472h-6.36a1.68 1.68 0 0 1-1.2-.491c-.311-.34-.49-.716-.49-1.17 0-.527.179-.98.49-1.357.356-.378.8-.604 1.334-.604h11.919v-4.038H49.454c-2.18 0-3.87.566-5.07 1.66-1.067 1.02-1.601 2.378-1.601 4 0 1.585.534 2.982 1.601 4.113 1.2 1.245 2.624 1.887 4.358 1.887h7.338c.445 0 .8.113 1.068.415.311.302.444.68.444 1.094 0 .492-.222.944-.578 1.322-.4.339-.845.527-1.423.527H43.85l-.179-.263-4.401-12-.223-.378c-1.067-1.848-2.846-2.753-5.292-2.753-1.334 0-2.535.263-3.602.83-1.112.565-1.824 1.395-2.224 2.452l-5.915 16.15 5.381.038 5.426-14.376c.134-.453.445-.68.845-.68.222 0 .4.077.534.19.133.15.222.301.267.49l5.47 14.377h5.07zM4.981 21.075v13.17H0V19.64c0-1.887.534-3.208 1.69-4 .89-.566 2.224-.868 4.092-.868 1.512 0 2.802.378 3.958 1.094 1.156.717 1.912 1.698 2.312 2.906l3.248 9.698.534 1.32c.044.264.222.453.4.604.222.152.445.227.711.152.445-.039.667-.265.667-.605V15.225h5.115v14.53c0 1.62-.445 2.829-1.379 3.696-.89.869-2.223 1.322-4.002 1.322-1.557 0-2.847-.265-3.87-.718-1.245-.528-2.045-1.358-2.401-2.452L7.338 20.547l-.267-.717c-.088-.265-.266-.454-.489-.642a.928.786 0 0 0-.756-.151c-.267.038-.445.152-.622.378a1.54 1.305 0 0 0-.223.679zm79.606 13.207-5.781-16.339-.223-.378c-1.067-1.848-2.846-2.753-5.292-2.753-1.334 0-2.535.263-3.602.83-1.112.565-1.823 1.395-2.224 2.452l-5.915 16.15 5.382.038 5.425-14.376c.134-.453.445-.68.845-.68.223 0 .4.077.534.19.134.15.222.301.267.49l5.47 14.377h5.114z" clip-rule="evenodd" fill="#fff" fill-rule="evenodd"/></svg>