<svg xmlns="http://www.w3.org/2000/svg" width="128" height="128" fill="none"><path fill="#fff" d="M58.909 24.97H69.09v13.978H58.91V24.97Z"/><path fill="#fff" d="M58.909 24.97H64v13.978h-5.091V24.97Z"/><path stroke="#1772EB" stroke-linecap="round" stroke-linejoin="round" stroke-width="3.54" d="M58.909 38.944V24.97H69.09v13.978"/><path fill="#ACCCF8" d="M31.755 70.792a32.245 32.245 0 1 0 64.49 0 32.245 32.245 0 0 0-64.49 0Z"/><path fill="#fff" d="M41.198 93.59a32.246 32.246 0 0 1 45.604-45.6l-45.604 45.6Z"/><path stroke="#1772EB" stroke-linecap="round" stroke-linejoin="round" stroke-width="3.54" d="M31.755 70.792a32.245 32.245 0 1 0 64.49 0 32.245 32.245 0 0 0-64.49 0ZM53.818 24.97h20.365M86.799 47.993l6.051-6.052M91.153 40.244l3.394 3.394M79 86 67 74"/><path stroke="#1772EB" stroke-linecap="round" stroke-linejoin="round" stroke-width="3.54" d="M64 75a4 4 0 1 0 0-8 4 4 0 0 0 0 8Z"/><path stroke="#1772EB" stroke-linecap="round" stroke-linejoin="round" stroke-width="3.54" d="M55.105 51.895a21.075 21.075 0 0 1 23.884 33.967"/></svg>