<svg xmlns="http://www.w3.org/2000/svg" width="128" height="128" fill="none"><path fill="#ACCCF8" d="M106 76.74V28.695A3.696 3.696 0 0 0 102.304 25H24.696A3.696 3.696 0 0 0 21 28.696v48.043h85Z"/><path fill="#fff" d="M94.913 25H24.696A3.696 3.696 0 0 0 21 28.696v48.043h22.174L94.913 25ZM21 76.74v7.39a3.696 3.696 0 0 0 3.696 3.696h77.608A3.696 3.696 0 0 0 106 84.131v-7.392H21Z"/><path fill="#ACCCF8" stroke="#1772EB" stroke-linecap="round" stroke-linejoin="round" stroke-width="3.54" d="M74.587 102.609a25.793 25.793 0 0 1-5.543-14.783H57.957a25.793 25.793 0 0 1-5.544 14.783h22.174Z"/><path stroke="#1772EB" stroke-linecap="round" stroke-linejoin="round" stroke-width="3.54" d="M46.866 102.608h33.26M21 76.74h85M24.696 25h77.608S106 25 106 28.696V84.13s0 3.696-3.696 3.696H24.696S21 87.826 21 84.13V28.696S21 25 24.696 25ZM71 69h19M71 57h19"/><path fill="#fff" d="M40.696 42c0 2.387.928 4.676 2.579 6.364A8.708 8.708 0 0 0 49.5 51a8.707 8.707 0 0 0 6.225-2.636A9.103 9.103 0 0 0 58.304 42a9.175 9.175 0 0 0-.67-3.444 9.018 9.018 0 0 0-1.909-2.92 8.794 8.794 0 0 0-2.856-1.95 8.637 8.637 0 0 0-6.738 0 8.794 8.794 0 0 0-2.856 1.95 9.018 9.018 0 0 0-1.908 2.92 9.176 9.176 0 0 0-.67 3.444ZM35 69c0-3.931 1.528-7.702 4.247-10.481 2.72-2.78 6.407-4.342 10.253-4.342s7.534 1.562 10.253 4.342C62.473 61.299 64 65.069 64 69H35Z"/><path fill="#fff" d="M49.5 59.47a14.28 14.28 0 0 1 8.213 2.617A14.778 14.778 0 0 1 63.031 69H64c0-3.931-1.528-7.702-4.247-10.481-2.72-2.78-6.407-4.342-10.253-4.342s-7.534 1.562-10.253 4.342C36.527 61.299 35 65.069 35 69h.97a14.778 14.778 0 0 1 5.317-6.913 14.28 14.28 0 0 1 8.213-2.616Z"/><path stroke="#1772EB" stroke-linecap="round" stroke-linejoin="round" stroke-width="3.54" d="M40.696 42c0 2.387.928 4.676 2.579 6.364A8.708 8.708 0 0 0 49.5 51a8.707 8.707 0 0 0 6.225-2.636A9.103 9.103 0 0 0 58.304 42a9.175 9.175 0 0 0-.67-3.444 9.018 9.018 0 0 0-1.909-2.92 8.794 8.794 0 0 0-2.856-1.95 8.637 8.637 0 0 0-6.738 0 8.794 8.794 0 0 0-2.856 1.95 9.018 9.018 0 0 0-1.908 2.92 9.176 9.176 0 0 0-.67 3.444ZM35 69c0-3.931 1.528-7.702 4.247-10.481 2.72-2.78 6.407-4.342 10.253-4.342s7.534 1.562 10.253 4.342C62.473 61.299 64 65.069 64 69H35Z"/><path fill="#fff" d="M92.989 47c13.844 0 22.497-15.001 15.574-27-6.922-12-24.228-12-31.149 0a18.011 18.011 0 0 0-2.409 9c0 9.941 8.052 18 17.984 18Z"/><path fill="#fff" d="M92.989 11c-13.845.017-22.479 15.028-15.542 27.02a18.004 18.004 0 0 0 3.723 4.528l25.352-25.374A17.913 17.913 0 0 0 92.989 11Z"/><path stroke="#1772EB" stroke-linecap="round" stroke-linejoin="round" stroke-width="3.54" d="M92.989 47c13.844 0 22.497-15.001 15.574-27-6.922-12-24.228-12-31.149 0a18.011 18.011 0 0 0-2.409 9c0 9.941 8.052 18 17.984 18Z"/><path stroke="#1772EB" stroke-linecap="round" stroke-linejoin="round" stroke-width="3.54" d="m99.892 24-6.76 9.04a1.747 1.747 0 0 1-2.635.186L87 29.726"/></svg>