<svg width="128" height="128" viewBox="0 0 128 128" fill="none" xmlns="http://www.w3.org/2000/svg"><path fill-rule="evenodd" clip-rule="evenodd" d="M31.2756 32.3232h-2v66.1315H66.35v-4H33.2756V36.3232h57.9816v58.1315H85.35v4h9.9072V32.3232H31.2756z" fill="#007FED"/><path d="M63.3083 86.3558l26.0393 9.7656-11.7534 4.7526-4.8686 11.021-9.4173-25.5392zm-1.1069-22.2659c4.8397 0 8.7631-3.9234 8.7631-8.7631 0-4.8398-3.9234-8.7632-8.7631-8.7632-4.8398 0-8.7632 3.9234-8.7632 8.7632 0 4.8397 3.9234 8.7631 8.7632 8.7631zm14.8584 21.2234v-2.6679a14.8583 14.8583 0 00-9.0784-14.0755 14.8582 14.8582 0 00-19.6103 8.2722 14.8579 14.8579 0 00-1.0181 5.8033v2.6679" stroke="#007FED" stroke-width="4" stroke-miterlimit="10"/><path d="M77.6145 100.871l11.2565 11.172" stroke="#007FED" stroke-width="4"/></svg>
